<svg width="32" height="32" viewBox="0 0 32 32" fill="none" xmlns="http://www.w3.org/2000/svg">
  <circle cx="16" cy="16" r="16" fill="#F5AC37"/>
  <path d="M16 6C13.5 6 11.5 7.5 10.5 9.5H8V11H10C9.9 11.3 9.9 11.7 9.9 12H8V14H10C10.5 16.5 12.5 18.5 15 19V20H17V19C19.5 18.5 21.5 16.5 22 14H24V12H22.1C22.1 11.7 22.1 11.3 22 11H24V9.5H21.5C20.5 7.5 18.5 6 16 6ZM12 11H20C20.4 11.6 20.7 12.3 20.8 13H11.2C11.3 12.3 11.6 11.6 12 11ZM11.2 14H20.8C20.7 14.7 20.4 15.4 20 16H12C11.6 15.4 11.3 14.7 11.2 14Z" fill="white"/>
</svg>

