<svg width="32" height="32" viewBox="0 0 32 32" fill="none" xmlns="http://www.w3.org/2000/svg">
  <circle cx="16" cy="16" r="16" fill="#2775CA"/>
  <path d="M16 28C22.6274 28 28 22.6274 28 16C28 9.37258 22.6274 4 16 4C9.37258 4 4 9.37258 4 16C4 22.6274 9.37258 28 16 28Z" fill="white"/>
  <path d="M16 26C21.5228 26 26 21.5228 26 16C26 10.4772 21.5228 6 16 6C10.4772 6 6 10.4772 6 16C6 21.5228 10.4772 26 16 26Z" fill="#2775CA"/>
  <path d="M18.5 14C18.5 12.6 17.6 12 16 12C14.4 12 13.5 12.6 13.5 14C13.5 15.4 14.4 16 16 16C17.6 16 18.5 16.6 18.5 18C18.5 19.4 17.6 20 16 20C14.4 20 13.5 19.4 13.5 18M16 11V21M16 10V22" stroke="white" stroke-width="1.5" stroke-linecap="round"/>
</svg>

